<svg width="26" height="26" viewBox="0 0 26 26" fill="none" xmlns="http://www.w3.org/2000/svg">
<path d="M23.433 17.8217H8.31288L9.07206 16.2754L21.6861 16.2525C22.1127 16.2525 22.4783 15.9479 22.5545 15.5264L24.3013 5.74844C24.347 5.49199 24.2785 5.22793 24.1109 5.02734C24.0281 4.92863 23.9248 4.84911 23.8082 4.7943C23.6915 4.7395 23.5644 4.71072 23.4355 4.70996L7.38866 4.65664L7.25155 4.01172C7.16522 3.60039 6.79452 3.30078 6.37303 3.30078H2.45018C2.21247 3.30078 1.9845 3.39521 1.81641 3.5633C1.64832 3.73138 1.55389 3.95936 1.55389 4.19707C1.55389 4.43478 1.64832 4.66276 1.81641 4.83084C1.9845 4.99893 2.21247 5.09336 2.45018 5.09336H5.64686L6.24608 7.94219L7.72128 15.0846L5.82206 18.1848C5.72343 18.3179 5.66402 18.476 5.65056 18.6411C5.6371 18.8062 5.67012 18.9718 5.74589 19.1191C5.89823 19.4213 6.20545 19.6117 6.54569 19.6117H8.14022C7.80029 20.0632 7.61668 20.6132 7.61717 21.1783C7.61717 22.6154 8.78514 23.7834 10.2223 23.7834C11.6594 23.7834 12.8273 22.6154 12.8273 21.1783C12.8273 20.6121 12.6394 20.0611 12.3043 19.6117H16.3947C16.0548 20.0632 15.8712 20.6132 15.8717 21.1783C15.8717 22.6154 17.0396 23.7834 18.4767 23.7834C19.9138 23.7834 21.0818 22.6154 21.0818 21.1783C21.0818 20.6121 20.8939 20.0611 20.5588 19.6117H23.4355C23.9281 19.6117 24.3318 19.2105 24.3318 18.7154C24.3303 18.478 24.235 18.2507 24.0666 18.0833C23.8982 17.9159 23.6705 17.8218 23.433 17.8217ZM7.7619 6.42383L22.3818 6.47207L20.9498 14.4904L9.46561 14.5107L7.7619 6.42383ZM10.2223 21.9807C9.78045 21.9807 9.41991 21.6201 9.41991 21.1783C9.41991 20.7365 9.78045 20.376 10.2223 20.376C10.664 20.376 11.0246 20.7365 11.0246 21.1783C11.0246 21.3911 10.9401 21.5952 10.7896 21.7457C10.6391 21.8961 10.435 21.9807 10.2223 21.9807ZM18.4767 21.9807C18.0349 21.9807 17.6744 21.6201 17.6744 21.1783C17.6744 20.7365 18.0349 20.376 18.4767 20.376C18.9185 20.376 19.2791 20.7365 19.2791 21.1783C19.2791 21.3911 19.1946 21.5952 19.0441 21.7457C18.8936 21.8961 18.6895 21.9807 18.4767 21.9807Z" fill="#151414"/>
</svg>
