<svg width="22" height="25" viewBox="0 0 22 25" fill="none" xmlns="http://www.w3.org/2000/svg">
<path d="M8.91932 19.2644C9.23471 19.2644 9.53718 19.1375 9.76019 18.9117C9.9832 18.6859 10.1085 18.3797 10.1085 18.0603V10.8362C10.1085 10.5169 9.9832 10.2106 9.76019 9.98483C9.53718 9.75904 9.23471 9.63218 8.91932 9.63218C8.60394 9.63218 8.30147 9.75904 8.07846 9.98483C7.85545 10.2106 7.73017 10.5169 7.73017 10.8362V18.0603C7.73017 18.3797 7.85545 18.6859 8.07846 18.9117C8.30147 19.1375 8.60394 19.2644 8.91932 19.2644ZM20.8109 4.81609H16.0543V3.61207C16.0543 2.65409 15.6784 1.73534 15.0094 1.05795C14.3404 0.380556 13.433 0 12.4868 0H10.1085C9.16233 0 8.25493 0.380556 7.5859 1.05795C6.91686 1.73534 6.54101 2.65409 6.54101 3.61207V4.81609H1.78437C1.46899 4.81609 1.16652 4.94294 0.943511 5.16874C0.720501 5.39454 0.595215 5.70079 0.595215 6.02011C0.595215 6.33944 0.720501 6.64569 0.943511 6.87149C1.16652 7.09729 1.46899 7.22414 1.78437 7.22414H2.97353V20.4684C2.97353 21.4264 3.34939 22.3451 4.01842 23.0225C4.68745 23.6999 5.59485 24.0805 6.54101 24.0805H16.0543C17.0004 24.0805 17.9078 23.6999 18.5769 23.0225C19.2459 22.3451 19.6217 21.4264 19.6217 20.4684V7.22414H20.8109C21.1263 7.22414 21.4288 7.09729 21.6518 6.87149C21.8748 6.64569 22.0001 6.33944 22.0001 6.02011C22.0001 5.70079 21.8748 5.39454 21.6518 5.16874C21.4288 4.94294 21.1263 4.81609 20.8109 4.81609ZM8.91932 3.61207C8.91932 3.29274 9.04461 2.98649 9.26762 2.7607C9.49063 2.5349 9.7931 2.40805 10.1085 2.40805H12.4868C12.8022 2.40805 13.1047 2.5349 13.3277 2.7607C13.5507 2.98649 13.676 3.29274 13.676 3.61207V4.81609H8.91932V3.61207ZM17.2434 20.4684C17.2434 20.7877 17.1181 21.094 16.8951 21.3198C16.6721 21.5456 16.3697 21.6724 16.0543 21.6724H6.54101C6.22562 21.6724 5.92316 21.5456 5.70015 21.3198C5.47713 21.094 5.35185 20.7877 5.35185 20.4684V7.22414H17.2434V20.4684ZM13.676 19.2644C13.9913 19.2644 14.2938 19.1375 14.5168 18.9117C14.7398 18.6859 14.8651 18.3797 14.8651 18.0603V10.8362C14.8651 10.5169 14.7398 10.2106 14.5168 9.98483C14.2938 9.75904 13.9913 9.63218 13.676 9.63218C13.3606 9.63218 13.0581 9.75904 12.8351 9.98483C12.6121 10.2106 12.4868 10.5169 12.4868 10.8362V18.0603C12.4868 18.3797 12.6121 18.6859 12.8351 18.9117C13.0581 19.1375 13.3606 19.2644 13.676 19.2644Z" fill="black"/>
</svg>
